<svg xmlns="http://www.w3.org/2000/svg" version="1.1" width="22px" height="120px"
  style="shape-rendering:geometricPrecision; text-rendering:geometricPrecision; image-rendering:optimizeQuality; fill-rule:evenodd; clip-rule:evenodd"
  xmlns:xlink="http://www.w3.org/1999/xlink">
  <g>
    <path style="opacity:0.987" fill="#7c8a63"
      d="M 0.5,-0.5 C 7.16667,-0.5 13.8333,-0.5 20.5,-0.5C 20.5,0.166667 20.8333,0.5 21.5,0.5C 21.5,6.16667 21.5,11.8333 21.5,17.5C 14.1667,17.5 6.83333,17.5 -0.5,17.5C -0.5,11.8333 -0.5,6.16667 -0.5,0.5C 0.166667,0.5 0.5,0.166667 0.5,-0.5 Z" />
  </g>
  <g>
    <path style="opacity:1" fill="#9ca789"
      d="M -0.5,17.5 C 6.83333,17.5 14.1667,17.5 21.5,17.5C 21.5,20.1667 21.5,22.8333 21.5,25.5C 14.1667,25.5 6.83333,25.5 -0.5,25.5C -0.5,22.8333 -0.5,20.1667 -0.5,17.5 Z" />
  </g>
  <g>
    <path style="opacity:0.991" fill="#7c8a63"
      d="M -0.5,25.5 C 6.83333,25.5 14.1667,25.5 21.5,25.5C 21.5,47.8333 21.5,70.1667 21.5,92.5C 14.1667,92.5 6.83333,92.5 -0.5,92.5C -0.5,70.1667 -0.5,47.8333 -0.5,25.5 Z" />
  </g>
  <g>
    <path style="opacity:1" fill="#9ba687"
      d="M -0.5,92.5 C 6.83333,92.5 14.1667,92.5 21.5,92.5C 21.5,95.5 21.5,98.5 21.5,101.5C 14.1667,101.5 6.83333,101.5 -0.5,101.5C -0.5,98.5 -0.5,95.5 -0.5,92.5 Z" />
  </g>
  <g>
    <path style="opacity:0.987" fill="#7b8962"
      d="M -0.5,101.5 C 6.83333,101.5 14.1667,101.5 21.5,101.5C 21.5,106.833 21.5,112.167 21.5,117.5C 20.2905,117.932 19.2905,118.599 18.5,119.5C 13.1667,119.5 7.83333,119.5 2.5,119.5C 1.70951,118.599 0.709515,117.932 -0.5,117.5C -0.5,112.167 -0.5,106.833 -0.5,101.5 Z" />
  </g>
</svg>