<svg xmlns="http://www.w3.org/2000/svg" version="1.1" width="120px" height="31px" style="shape-rendering:geometricPrecision; text-rendering:geometricPrecision; image-rendering:optimizeQuality; fill-rule:evenodd; clip-rule:evenodd" xmlns:xlink="http://www.w3.org/1999/xlink">
<g><path style="opacity:0.983" fill="#eccd9e" d="M 0.5,-0.5 C 4.5,-0.5 8.5,-0.5 12.5,-0.5C 12.5,9.83333 12.5,20.1667 12.5,30.5C 8.5,30.5 4.5,30.5 0.5,30.5C 0.5,29.8333 0.166667,29.5 -0.5,29.5C -0.5,19.8333 -0.5,10.1667 -0.5,0.5C 0.166667,0.5 0.5,0.166667 0.5,-0.5 Z"/></g>
<g><path style="opacity:1" fill="#fcdba5" d="M 12.5,-0.5 C 15.5,-0.5 18.5,-0.5 21.5,-0.5C 21.5,9.83333 21.5,20.1667 21.5,30.5C 18.5,30.5 15.5,30.5 12.5,30.5C 12.5,20.1667 12.5,9.83333 12.5,-0.5 Z"/></g>
<g><path style="opacity:0.994" fill="#ecce9f" d="M 21.5,-0.5 C 46.5,-0.5 71.5,-0.5 96.5,-0.5C 96.5,9.83333 96.5,20.1667 96.5,30.5C 71.5,30.5 46.5,30.5 21.5,30.5C 21.5,20.1667 21.5,9.83333 21.5,-0.5 Z"/></g>
<g><path style="opacity:1" fill="#fcdba5" d="M 96.5,-0.5 C 99.5,-0.5 102.5,-0.5 105.5,-0.5C 105.5,9.83333 105.5,20.1667 105.5,30.5C 102.5,30.5 99.5,30.5 96.5,30.5C 96.5,20.1667 96.5,9.83333 96.5,-0.5 Z"/></g>
<g><path style="opacity:0.937" fill="#ecce9e" d="M 105.5,-0.5 C 109.5,-0.5 113.5,-0.5 117.5,-0.5C 117.932,0.709515 118.599,1.70951 119.5,2.5C 119.5,10.8333 119.5,19.1667 119.5,27.5C 118.599,28.2905 117.932,29.2905 117.5,30.5C 113.5,30.5 109.5,30.5 105.5,30.5C 105.5,20.1667 105.5,9.83333 105.5,-0.5 Z"/></g>
</svg>
