<svg xmlns="http://www.w3.org/2000/svg" version="1.1" width="31px" height="120px" style="shape-rendering:geometricPrecision; text-rendering:geometricPrecision; image-rendering:optimizeQuality; fill-rule:evenodd; clip-rule:evenodd" xmlns:xlink="http://www.w3.org/1999/xlink">
<g><path style="opacity:0.981" fill="#ebcd9e" d="M 0.5,-0.5 C 10.5,-0.5 20.5,-0.5 30.5,-0.5C 30.5,3.5 30.5,7.5 30.5,11.5C 20.1667,11.5 9.83333,11.5 -0.5,11.5C -0.5,7.83333 -0.5,4.16667 -0.5,0.5C 0.166667,0.5 0.5,0.166667 0.5,-0.5 Z"/></g>
<g><path style="opacity:0.984" fill="#fcdba5" d="M -0.5,11.5 C 9.83333,11.5 20.1667,11.5 30.5,11.5C 30.5,14.5 30.5,17.5 30.5,20.5C 20.1667,20.5 9.83333,20.5 -0.5,20.5C -0.5,17.5 -0.5,14.5 -0.5,11.5 Z"/></g>
<g><path style="opacity:0.983" fill="#ecce9f" d="M -0.5,20.5 C 9.83333,20.5 20.1667,20.5 30.5,20.5C 30.5,45.5 30.5,70.5 30.5,95.5C 20.1667,95.5 9.83333,95.5 -0.5,95.5C -0.5,70.5 -0.5,45.5 -0.5,20.5 Z"/></g>
<g><path style="opacity:0.984" fill="#fcdba5" d="M -0.5,95.5 C 9.83333,95.5 20.1667,95.5 30.5,95.5C 30.5,98.5 30.5,101.5 30.5,104.5C 20.1667,104.5 9.83333,104.5 -0.5,104.5C -0.5,101.5 -0.5,98.5 -0.5,95.5 Z"/></g>
<g><path style="opacity:0.888" fill="#ecce9e" d="M -0.5,104.5 C 9.83333,104.5 20.1667,104.5 30.5,104.5C 30.5,108.5 30.5,112.5 30.5,116.5C 29.0937,116.973 28.427,117.973 28.5,119.5C 19.8333,119.5 11.1667,119.5 2.5,119.5C 2.18982,117.856 1.18982,116.856 -0.5,116.5C -0.5,112.5 -0.5,108.5 -0.5,104.5 Z"/></g>
</svg>
