<svg xmlns="http://www.w3.org/2000/svg" version="1.1" width="31px" height="120px" style="shape-rendering:geometricPrecision; text-rendering:geometricPrecision; image-rendering:optimizeQuality; fill-rule:evenodd; clip-rule:evenodd" xmlns:xlink="http://www.w3.org/1999/xlink">
<g><path style="opacity:0.977" fill="#a47f61" d="M 0.5,-0.5 C 10.1667,-0.5 19.8333,-0.5 29.5,-0.5C 29.5,0.166667 29.8333,0.5 30.5,0.5C 30.5,5.83333 30.5,11.1667 30.5,16.5C 20.1667,16.5 9.83333,16.5 -0.5,16.5C -0.5,11.5 -0.5,6.5 -0.5,1.5C 0.338246,1.15829 0.67158,0.491622 0.5,-0.5 Z"/></g>
<g><path style="opacity:0.984" fill="#cda98f" d="M -0.5,16.5 C 9.83333,16.5 20.1667,16.5 30.5,16.5C 30.5,18.1667 30.5,19.8333 30.5,21.5C 20.1667,21.5 9.83333,21.5 -0.5,21.5C -0.5,19.8333 -0.5,18.1667 -0.5,16.5 Z"/></g>
<g><path style="opacity:0.984" fill="#a58062" d="M -0.5,21.5 C 9.83333,21.5 20.1667,21.5 30.5,21.5C 30.5,46.5 30.5,71.5 30.5,96.5C 20.1667,96.5 9.83333,96.5 -0.5,96.5C -0.5,71.5 -0.5,46.5 -0.5,21.5 Z"/></g>
<g><path style="opacity:0.983" fill="#d1ad94" d="M -0.5,96.5 C 9.83333,96.5 20.1667,96.5 30.5,96.5C 30.5,97.8333 30.5,99.1667 30.5,100.5C 20.1667,100.5 9.83333,100.5 -0.5,100.5C -0.5,99.1667 -0.5,97.8333 -0.5,96.5 Z"/></g>
<g><path style="opacity:0.975" fill="#a58062" d="M -0.5,100.5 C 9.83333,100.5 20.1667,100.5 30.5,100.5C 30.5,106.167 30.5,111.833 30.5,117.5C 29.6618,117.842 29.3284,118.508 29.5,119.5C 20.1667,119.5 10.8333,119.5 1.5,119.5C 1.57298,117.973 0.906316,116.973 -0.5,116.5C -0.5,111.167 -0.5,105.833 -0.5,100.5 Z"/></g>
</svg>
