<svg xmlns="http://www.w3.org/2000/svg" version="1.1" width="120px" height="31px" style="shape-rendering:geometricPrecision; text-rendering:geometricPrecision; image-rendering:optimizeQuality; fill-rule:evenodd; clip-rule:evenodd" xmlns:xlink="http://www.w3.org/1999/xlink">
<g><path style="opacity:0.951" fill="#8e6659" d="M 1.5,-0.5 C 6.83333,-0.5 12.1667,-0.5 17.5,-0.5C 17.5,9.83333 17.5,20.1667 17.5,30.5C 12.1667,30.5 6.83333,30.5 1.5,30.5C 1.06795,29.2905 0.40128,28.2905 -0.5,27.5C -0.5,19.1667 -0.5,10.8333 -0.5,2.5C 0.40128,1.70951 1.06795,0.709515 1.5,-0.5 Z"/></g>
<g><path style="opacity:1" fill="#bc988b" d="M 17.5,-0.5 C 19.1667,-0.5 20.8333,-0.5 22.5,-0.5C 22.5,9.83333 22.5,20.1667 22.5,30.5C 20.8333,30.5 19.1667,30.5 17.5,30.5C 17.5,20.1667 17.5,9.83333 17.5,-0.5 Z"/></g>
<g><path style="opacity:0.996" fill="#8f675a" d="M 22.5,-0.5 C 47.5,-0.5 72.5,-0.5 97.5,-0.5C 97.5,9.83333 97.5,20.1667 97.5,30.5C 72.5,30.5 47.5,30.5 22.5,30.5C 22.5,20.1667 22.5,9.83333 22.5,-0.5 Z"/></g>
<g><path style="opacity:1" fill="#c19d90" d="M 97.5,-0.5 C 98.8333,-0.5 100.167,-0.5 101.5,-0.5C 101.5,9.83333 101.5,20.1667 101.5,30.5C 100.167,30.5 98.8333,30.5 97.5,30.5C 97.5,20.1667 97.5,9.83333 97.5,-0.5 Z"/></g>
<g><path style="opacity:0.987" fill="#8f675a" d="M 101.5,-0.5 C 107.167,-0.5 112.833,-0.5 118.5,-0.5C 118.5,0.166667 118.833,0.5 119.5,0.5C 119.5,10.1667 119.5,19.8333 119.5,29.5C 118.833,29.5 118.5,29.8333 118.5,30.5C 112.833,30.5 107.167,30.5 101.5,30.5C 101.5,20.1667 101.5,9.83333 101.5,-0.5 Z"/></g>
</svg>
