<svg xmlns="http://www.w3.org/2000/svg" version="1.1" width="120px" height="31px" style="shape-rendering:geometricPrecision; text-rendering:geometricPrecision; image-rendering:optimizeQuality; fill-rule:evenodd; clip-rule:evenodd" xmlns:xlink="http://www.w3.org/1999/xlink">
<g><path style="opacity:0.827" fill="#c1d2a3" d="M 54.5,6.5 C 56.7224,6.17798 58.5557,6.84464 60,8.5C 62.1726,6.09901 64.5059,6.09901 67,8.5C 68.0832,11.95 68.5832,15.45 68.5,19C 67.9757,22.355 65.9757,24.1884 62.5,24.5C 61.3527,24.1822 60.5194,23.5156 60,22.5C 55.1674,25.5067 52.0007,24.1733 50.5,18.5C 50.8178,17.3527 51.4844,16.5194 52.5,16C 51.1955,15.196 50.5288,14.0293 50.5,12.5C 51.4316,10.2345 52.7649,8.23453 54.5,6.5 Z"/></g>
<g><path style="opacity:0.829" fill="#c1d2a3" d="M 57.5,13.5 C 58.8333,13.5 60.1667,13.5 61.5,13.5C 61.5,14.8333 61.5,16.1667 61.5,17.5C 60.1667,17.5 58.8333,17.5 57.5,17.5C 57.5,16.1667 57.5,14.8333 57.5,13.5 Z"/></g>
</svg>
